<?xml version="1.0" encoding="UTF-8"?>
<svg id="favicon" data-name="favicon" xmlns="http://www.w3.org/2000/svg" viewBox="0 0 32 32" fill="none" >
  <style>
    path, line {
      stroke: #f9f9f9;
      stroke-linecap: "round";
      stroke-linejoin: "round"
    }

    @media (prefers-color-scheme: light) {
      path, line {
        stroke: #111;
      }
    }
  </style>
  <g>
    <path d="M13.82,5.14c1.49-.63,3.42-1.53,5.01-2,.25-.07.8-.23,1.31-.06.39.13.71.39.86.77l7.02,17.46c.3.75-.18,1.65-1.07,2.01l-13.77,5.54c-.89.36-1.86.04-2.17-.71L3.98,10.69c-.3-.75.18-1.65,1.07-2.01,1.73-.7,3.19-1.32,5.01-2.03" style="stroke-width: 2px;"/>
    <line x1="10.83" y1="8.69" x2="9.15" y2="4.52" style="stroke-width: 2px;"/>
  </g>
  <line x1="9.51" y1="12.77" x2="18.42" y2="9.18"/>
  <line x1="11.75" y1="18.33" x2="20.69" y2="14.74"/>
  <line x1="10.63" y1="15.55" x2="13.06" y2="14.57"/>
  <line x1="12.87" y1="21.12" x2="15.3" y2="20.14"/>
  <line x1="13.99" y1="23.9" x2="22.9" y2="20.31"/>
</svg>